<?xml version="1.0" standalone="no"?><!DOCTYPE svg PUBLIC "-//W3C//DTD SVG 1.1//EN" "http://www.w3.org/Graphics/SVG/1.1/DTD/svg11.dtd"><svg t="1586867247801" class="icon" viewBox="0 0 1024 1024" version="1.1" xmlns="http://www.w3.org/2000/svg" p-id="853" width="64" height="64" xmlns:xlink="http://www.w3.org/1999/xlink"><defs><style type="text/css"></style></defs><path d="M655.78027369 116.4921875h215.72578125c9.94042994 0 18.40957006 3.51738307 25.41796851 10.652344 7.04531275 6.92402318 10.56269506 15.38261744 10.56269505 25.38105417V368.19335937c0 9.9984375-3.51738307 18.457031-10.55742137 25.49179713-7.01367213 7.02949244-15.48281225 10.54687475-25.42324219 10.54687475-9.93515625 0-18.40429712-3.51738307-25.41796925-10.54687475-7.05058567-7.03476537-10.55214844-15.49335963-10.55214844-25.49179712V239.32109375L537.19648412 537.59726563c-6.90820287 6.92402318-15.3351565 10.44140625-25.28085937 10.44140625-10.30429713 0-18.86308619-3.41191382-25.70800782-10.21992189-6.84492162-6.92402318-10.24101588-15.49335963-10.24101511-25.7080078 0-9.9984375 3.44355443-18.35156251 10.37285131-25.38105494l298.34472681-298.27617188h-128.93554687c-9.93515625 0-18.38320313-3.51738307-25.4390625-10.54687474-6.99785182-7.03476537-10.53632812-15.49335963-10.53632813-25.38105494 0-9.9984375 3.53847631-18.457031 10.53632813-25.48652344 7.05585937-7.02949244 15.50390625-10.54687475 25.4337888-10.54687475h0.03691432z m-431.47265651 0h251.68535157c9.92988256 0 18.37792943 3.51738307 25.43378881 10.652344 7.00839844 6.92402318 10.53632812 15.38261744 10.53632811 25.38105417 0 9.88769531-3.53320338 18.35156251-10.53632811 25.38105496-7.05585937 7.02949244-15.50390625 10.54687475-25.43378881 10.54687474H224.30761718c-9.92460963 0-18.40429712 3.51210937-25.40214818 10.54687551-7.06640599 7.02949244-10.55742213 15.48808594-10.55742212 25.48652343v575.24765575c0 9.88769531 3.49101537 18.34628881 10.55742212 25.37578125 6.99785182 7.02949244 15.47753932 10.54687475 25.40214818 10.54687551h575.27929713c9.92988256 0 18.37792943-3.51738307 25.4337888-10.54687551 7.00839844-7.02949244 10.53632812-15.49335963 10.53632814-25.38105418V548.03867187c0-9.88769531 3.53320338-18.34628881 10.53632812-25.37578125 7.05058567-7.03476537 15.50917994-10.54687475 25.4443362-10.54687474 9.92988256 0 18.37792943 3.51210937 25.4337888 10.54687474 6.99785182 7.02949244 10.53632812 15.48808594 10.53632813 25.37578125v251.70117188c0 29.76855443-10.53632812 55.14960938-31.59843775 76.24335963-21.07265625 21.09375025-46.50644507 31.52988281-76.25390625 31.52988281H224.35507812c-29.78437475 0-55.17597631-10.44140625-76.25917994-31.5351565-21.07265625-21.09375025-31.60898438-46.4695315-31.60898437-76.24335963V224.49218725c0-29.77382812 10.53632812-55.14960938 31.60898437-76.24335887 21.08320287-21.09375025 46.47480443-31.640625 76.25917994-31.640625L224.30761718 116.4921875z" p-id="854"></path></svg>