<?xml version="1.0" standalone="no"?><!DOCTYPE svg PUBLIC "-//W3C//DTD SVG 1.1//EN" "http://www.w3.org/Graphics/SVG/1.1/DTD/svg11.dtd"><svg t="1588758604403" class="icon" viewBox="0 0 1024 1024" version="1.1" xmlns="http://www.w3.org/2000/svg" p-id="1379" xmlns:xlink="http://www.w3.org/1999/xlink" width="200" height="200"><defs><style type="text/css"></style></defs><path d="M643.85952427 262.90530987c-18.01693867 0-32.75707733 14.614528-32.75707734 32.48401066v81.20456534c0 17.86948267 14.74013867 32.489472 32.75707734 32.489472s32.75707733-14.61998933 32.75707733-32.489472v-81.20456534c0-17.86948267-14.74013867-32.48401067-32.75707733-32.48401066z" fill="#006569" p-id="1380"></path><path d="M910.47417173 313.84644267l-145.784832-207.89111467c-13.09627733-17.86948267-34.39547733-29.23451733-58.966016-30.86199467H175.01825707c-36.03933867 0-65.519616 29.23451733-65.519616 64.96802134v745.49930666c0 35.733504 29.48027733 63.34600533 65.519616 63.34600534h689.586176c36.03933867 0 63.88667733-29.23997867 63.88667733-63.34600534v-526.23223466c1.6384-17.86948267-6.54813867-34.111488-18.01693867-45.481984zM205.0555904 171.87908267h517.59786667v220.889088c0 30.85653333-26.2144 58.46903467-58.966016 58.46903466H264.0216064c-32.76253867 0-58.966016-25.985024-58.966016-58.46903466V171.87908267z m544.25572693 665.059328h-462.60770133c-24.6382592 0-44.61253973-20.29431467-44.61253973-45.32906667s19.97318827-45.32906667 44.61253973-45.32906667h462.60770133c24.6382592 0 44.61253973 20.29431467 44.61253974 45.32906667s-19.97428053 45.32906667-44.61253974 45.32906667z m0.00109227-167.10587734H286.70252373c-24.6382592 0-44.61253973-20.29431467-44.61253973-45.32906666s19.97318827-45.32906667 44.61253973-45.32906667h462.61097814c24.6382592 0 44.61253973 20.29431467 44.61253973 45.32906667s-19.97428053 45.32906667-44.613632 45.32906666z" fill="#006569" p-id="1381"></path></svg>